<svg xmlns="http://www.w3.org/2000/svg" width="32" height="31" viewBox="0 0 32 31">
    <defs>
        <filter id="quaga8w3da">
            <feColorMatrix in="SourceGraphic" values="0 0 0 0 1.000000 0 0 0 0 1.000000 0 0 0 0 1.000000 0 0 0 1.000000 0"/>
        </filter>
    </defs>
    <g fill="none" fill-rule="evenodd">
        <g>
            <g>
                <g filter="url(#quaga8w3da)" transform="translate(-801 -662) translate(523 639) translate(255.09)">
                    <g fill-rule="nonzero">
                        <g fill="#000">
                            <path d="M12.917 0C5.793 0 0 5.797 0 12.917c0 7.123 5.793 12.916 12.917 12.916 7.123 0 12.916-5.793 12.916-12.916C25.833 5.797 20.04 0 12.917 0zm0 2.58c5.013 0 9.203 3.589 10.14 8.332-6.051-1.695-14.23-1.695-20.282 0C3.712 6.169 7.902 2.58 12.916 2.58zm0 12.71c-1.105 0-2.004-.9-2.004-2.004v-1.611c0-.217.175-.392.391-.392h3.224c.216 0 .391.175.391.392v1.611c0 1.105-.898 2.003-2.003 2.003zm-10.33-2.027h1.856c3.67 0 6.654 2.985 6.654 6.654v3.175c-4.725-.842-8.347-4.904-8.51-9.829zm12.148 9.83v-3.176c0-3.669 2.985-6.654 6.654-6.654h1.074c.002-.07.445-.14.788-.21-.065 5.019-3.723 9.185-8.516 10.04z" transform="translate(23 23) translate(2.583 2.583)"/>
                        </g>
                    </g>
                </g>
            </g>
        </g>
    </g>
</svg>
